<?xml version="1.0" encoding="utf-8"?>

<svg version="1.1" id="katman_1" xmlns="http://www.w3.org/2000/svg" xmlns:xlink="http://www.w3.org/1999/xlink" x="0px" y="0px"
	 viewBox="0 0 560 400" style="enable-background:new 0 0 560 400;" xml:space="preserve">
<style type="text/css">
	.st0{fill:#CC0000;}
	.st1{fill:#FFFFFF;}
</style>
<g transform="matrix(1.81452 0 0 -1.81452 -275.315 918.733)">
	<path class="st0" d="M192.51,345.23h227.06v101.75H192.51V345.23z"/>
	<path class="st1" d="M196.2,443.24v-94.28h219.64v94.28H196.2L196.2,443.24z M197.75,441.69h216.54v-91.17H197.75L197.75,441.69
		L197.75,441.69z M258.5,427.4c-9.3-0.02-16-6.18-16.01-14.88c0-8.19,7.23-13.69,15.79-13.71c8.48,0.02,15.56,6.21,15.58,15.05
		C273.85,421.76,266.76,427.39,258.5,427.4L258.5,427.4z M287.69,427.4c-4.48-0.01-7.83-2.73-7.84-6.4
		c0.05-7.71,14.02-9.64,13.96-15.79c0-3.37-3.02-5.04-5.91-5.04c-3.36,0-6.36,2.23-7.27,6.06l-0.02,0.07h-1l0.94-6.79h0.87
		l0.03,0.04c0.16,0.24,0.44,0.44,0.79,0.44c0.56,0.01,3.64-1.17,6.04-1.18c5.13,0.01,8.96,3.21,8.96,7.53
		c-0.04,8.1-14.03,9.78-13.96,15.83c0,2.38,1.94,3.99,4.79,4c2.96,0,5.71-1.98,6.91-5.08l0.03-0.06h0.9l-0.76,5.7h-0.82l-0.02-0.03
		c-0.27-0.34-0.38-0.4-0.71-0.4C292.14,426.31,291.36,427.4,287.69,427.4z M347.66,427.4c-9.3-0.02-15.99-6.18-16.01-14.88
		c0.01-8.19,7.23-13.69,15.8-13.71c8.48,0.02,15.56,6.21,15.57,15.05C363.02,421.76,355.92,427.39,347.66,427.4L347.66,427.4z
		 M302.44,427.4l-0.71-7.22h0.96l0.01,0.07c0.66,3.83,1.4,4.75,3.09,4.76h7.48v-21.4c-0.03-2.33-0.71-3.06-3.35-3.09h-1.69v-1h13.88
		v1h-1.69c-2.65,0.02-3.33,0.76-3.35,3.09v21.4l7.48,0c1.68,0,2.42-0.92,3.09-4.75l0.01-0.07h0.96l-0.71,7.22h-0.98l-0.02-0.07
		c-0.05-0.44-0.65-0.58-1.25-0.58l-20.93,0c-0.29,0-0.59,0.04-0.83,0.13c-0.25,0.08-0.38,0.23-0.42,0.45l-0.02,0.07H302.44
		L302.44,427.4z M223.75,427.14c-0.83,0-4.13-0.05-6.53-0.13c-1.26-0.04-4.26-0.22-5.48-0.26l-0.09,0v-1.01h1.61
		c3.01-0.02,3.23-1.21,3.26-3.69V404c-0.03-2.72-0.61-3.45-4.17-3.48h-1.09v-1h16.01c7.05,0.01,9.48,4.88,9.49,8.35
		c0,3.39-2.37,6.05-6.37,7.3v0c2.85,0.59,4.85,2.88,4.85,5.36c0,2.11-0.89,3.63-2.69,4.9C230.95,426.58,227.59,427.14,223.75,427.14
		z M367.4,426.75v-1.01l0.08,0c1.49-0.04,2.59-0.38,3.57-1.05v-21.36c-0.02-1.97-0.8-2.8-3.48-2.82h-0.26v-1h10.27v0.91v0v0.09
		h-0.09c-3.69,0.03-4.27,0.58-4.3,3.7v18.44l22.4-23.44h1.26v24.36c0.02,1.65,0.6,2.15,3.87,2.17h0.08v1.01h-10.35v-1l0.08,0
		c3.5-0.12,4.16-0.5,4.18-3.13v-17.09l-20.37,21.23H367.4z M224.06,426.13c5.32-0.01,7.08-2.73,7.09-5.74
		c-0.01-3.35-2.02-4.94-6.17-4.95h-4.65v10.57C221.41,426.05,223.13,426.13,224.06,426.13z M257.36,426.13
		c7.13,0,12.22-5.64,12.22-13.7c-0.01-6.15-3.37-12.34-10.39-12.35c-6.95,0-12.44,5.69-12.44,13.79
		C246.76,419.06,249.78,426.12,257.36,426.13z M346.53,426.13c7.12,0,12.21-5.64,12.21-13.7c0-6.15-3.36-12.34-10.39-12.35
		c-6.95,0-12.43,5.69-12.43,13.79C335.92,419.06,338.94,426.12,346.53,426.13L346.53,426.13z M220.32,414.43h4.61
		c5.05,0,7.56-3.39,7.57-6.7c-0.01-3.36-1.61-6.86-7.31-6.87c-3.64,0.02-4.85,1.11-4.87,4.39V414.43z M339.48,384.55
		c-2.97,0-5.21-1.81-5.21-4.26c0.05-5.13,9.28-6.41,9.23-10.43c-0.01-2.2-1.98-3.3-3.88-3.3c-2.2,0-4.17,1.46-4.77,3.98l-0.02,0.07
		h-0.71l0.62-4.55h0.62l0.03,0.04c0.1,0.15,0.27,0.28,0.49,0.28c0.36,0.01,2.4-0.78,3.99-0.78c3.41,0.01,5.96,2.13,5.96,5.01
		c-0.05,5.39-9.29,6.5-9.23,10.46c0,1.55,1.26,2.61,3.13,2.61c1.94,0,3.75-1.3,4.54-3.34l0.02-0.06h0.66l-0.51,3.83h-0.59
		l-0.03-0.04c-0.17-0.22-0.23-0.25-0.45-0.25C342.43,383.82,341.9,384.54,339.48,384.55L339.48,384.55z M362.13,384.54l-0.49-4.84
		h0.7l0.02,0.07c0.44,2.54,0.92,3.11,2.01,3.11h4.91v-14.11c-0.02-1.53-0.44-1.98-2.18-2.01l-1.15,0v-0.73h9.24v0.73h-1.15
		c-1.74,0.02-2.16,0.48-2.18,2.01v14.11l4.91,0c1.09,0,1.57-0.58,2.01-3.11l0.01-0.07h0.7l-0.48,4.84h-0.63h-0.08l-0.01-0.08
		c-0.03-0.26-0.39-0.36-0.8-0.35h-13.83c-0.19,0-0.38,0.03-0.54,0.08c-0.16,0.05-0.24,0.14-0.26,0.27l-0.02,0.08H362.13z
		 M319.76,384.3c-1.86,0-2.44-0.03-3.62-0.09c-1.17-0.06-2.92-0.17-3.6-0.17h-0.09v-0.72h0.72c1.64-0.02,2.03-0.44,2.06-2.2
		l-0.01-12.05c-0.02-1.9-0.52-2.26-2.2-2.28h-0.58v-0.72h8.29v0.72h-0.75c-1.59,0.02-2.18,0.37-2.2,2.05l0.01,4.74
		c0.42-0.03,0.8-0.05,1.39-0.05c0.78,0,1.54,0.06,2.15,0.17l0.01,0.04v-0.04c0.27,0.05,1.3-1.44,2.37-2.79l1.68-2.08
		c2.27-2.59,2.97-3.09,6.86-3.08h0.19v0.68l-0.07,0.01c-1.75,0.3-2.37,0.65-3.65,2.17c0,0-3.65,4.65-4.23,5.39
		c-0.18,0.22-0.32,0.37-0.42,0.46c2.12,0.8,3.44,2.42,3.44,4.65C327.51,382.09,325.07,384.29,319.76,384.3z M211.4,384.11v-0.73
		l0.09,0c1.96-0.06,2.36-0.25,2.38-2.07v-8.39c0.01-4.16,2.87-7.33,8.4-7.34c6.28,0.01,8.59,3.88,8.6,7.48v7.76
		c0.02,1.82,0.63,2.51,2.53,2.56h0.09v0.73h-6.94v-0.72l0.08,0c2.37-0.14,2.7-0.51,2.73-3.27v-6.7c-0.01-4.83-3.23-6.13-6.46-6.14
		c-4.25,0.01-6.45,2.28-6.46,6.12v7.99c0.02,1.64,0.61,1.99,2.18,2.01h0.35v0.73H211.4z M262.37,384.11v-0.72l0.09,0
		c1.6-0.11,2.05-0.45,2.07-1.98l0-12.25c-0.03-1.92-0.3-2.27-2.07-2.38l-0.09-0.01v-0.72h7.16v0.73h-0.09
		c-1.97,0.03-2.33,0.5-2.35,2.18v12.19c0.02,1.91,0.55,2.21,2.35,2.24h0.09v0.73H262.37z M272.2,384.11v-0.73h0.09
		c1.74-0.02,2-0.38,2.73-2.19l6.26-15.61h1.56l5.95,15.38c0.7,1.77,1.42,2.41,2.87,2.42h0.09v0.73h-6.85v-0.73H285
		c1.96-0.01,2.58-0.33,2.58-1.12c0-0.38-0.17-0.95-0.49-1.75l-4.46-11.66l-5.09,12.66c-0.12,0.28-0.17,0.52-0.17,0.72
		c-0.01,0.71,0.74,1.09,2.82,1.14l0.09,0v0.73H272.2z M293.68,384.11v-0.73h0.72c1.9-0.02,2.19-0.61,2.21-2.21v-12.13
		c-0.02-1.71-0.32-2.24-2.61-2.27h-0.9v-0.73h15.44l0.49,4.46h-0.69l-0.02-0.07c-0.73-2.47-1.27-3.17-3.25-3.18h-4.42
		c-1.05,0.02-1.45,0.19-1.46,1.49v6.03h4.77c1.16-0.02,1.6-0.16,1.86-2.19l0.01-0.08h0.72v5.64h-0.72l-0.01-0.08
		c-0.16-1.66-0.58-2.06-1.57-2.07h-5.05v6.89h5.97c0.99-0.01,1.66-0.44,2.04-2.88l0.01-0.08h0.7l-0.25,4.18L293.68,384.11z
		 M350.86,384.11v-0.72l0.08,0c1.6-0.11,2.05-0.45,2.07-1.98v-12.25c-0.02-1.92-0.3-2.27-2.07-2.38l-0.08,0v-0.72h7.17v0.73h-0.09
		c-1.97,0.03-2.33,0.5-2.35,2.18v12.19c0.02,1.91,0.55,2.21,2.35,2.24h0.09v0.73H350.86z M380.84,384.11v-0.72l0.09,0
		c1.85-0.07,2.44-0.42,3.86-2.63l5.1-7.97v-4.02c-0.02-1.39-0.45-1.96-2.21-1.98h-0.64v-0.73h8.08v0.73h-0.46
		c-1.74,0.02-2.19,0.54-2.22,2.04v4.31l4.76,8.03c0.81,1.34,1.59,2.08,3.52,2.23l0.08,0v0.72h-6.67v-0.73h0.09
		c1.25,0,1.8-0.23,1.81-0.78c0-0.27-0.14-0.66-0.43-1.16l-3.97-6.77l-4.52,6.98c-0.31,0.47-0.48,0.84-0.48,1.08
		c0,0.41,0.48,0.65,1.92,0.65h0.09v0.73H380.84z M236.32,384.11v-0.72l0.09,0c0.97-0.03,1.69-0.25,2.33-0.68v-14.1
		c-0.02-1.29-0.5-1.82-2.27-1.83h-0.2v-0.73h6.85v0.73h-0.09c-2.44,0.03-2.78,0.36-2.81,2.41v12.11l14.76-15.45h0.88v16.13
		c0.02,1.07,0.36,1.38,2.53,1.41h0.09v0.73h-6.91v-0.72l0.09,0c2.31-0.09,2.7-0.31,2.73-2.04v-11.22l-13.41,13.98H236.32z
		 M319.13,383.57c4.39-0.02,5.5-2,5.52-4.63c-0.01-3.39-2.02-4.67-5.17-4.69c-0.27,0-0.5-0.01-0.72-0.01c-0.31,0-0.6,0.01-0.96,0.05
		v9.23C318.26,383.57,318.62,383.57,319.13,383.57L319.13,383.57z"/>
</g>
</svg>