<?xml version="1.0" encoding="utf-8"?>
<!-- Generator: Adobe Illustrator 25.2.0, SVG Export Plug-In . SVG Version: 6.00 Build 0)  -->
<svg version="1.1" id="katman_1" xmlns="http://www.w3.org/2000/svg" xmlns:xlink="http://www.w3.org/1999/xlink" x="0px" y="0px"
	 viewBox="0 0 560 400" style="enable-background:new 0 0 560 400;" xml:space="preserve">
<style type="text/css">
	.st0{fill:#231F20;}
	.st1{fill:#FFFFFF;}
	.st2{fill:#DBCCA4;}
	.st3{fill:#8C2232;}
</style>
<g transform="matrix(3.45008 0 0 -3.45008 -2180.74 732.981)">
	<path class="st0" d="M721.79,123.89H705.5c0.71,1.44,1.87,3.79,3.22,6.51c3.68-0.42,5.75,0.58,5.75,0.58
		c0.46,0.46,1.55,2.03,2.11,2.86c1.8-1.02,3.5-1.16,3.65-1.17c0.81-0.52,0.99-0.75,1.02-0.82c-0.62-0.31-0.95-0.84-0.95-1.52
		c0-0.31,0.07-0.66,0.21-1.04l0.07-0.19l0.06,0.2c0.11,0.39,0.44,0.79,0.88,1.03c0.5,0.28,1.07,0.34,1.61,0.17
		c0.55-0.16,0.93-0.5,1.06-0.98c0.18-0.64-0.11-1.44-0.78-2.19l-0.19-0.21l0.26,0.11c1.02,0.4,1.67,0.94,1.94,1.59
		c0.1,0.23,0.13,0.45,0.13,0.65c0,0.19-0.03,0.33-0.06,0.42c0.22-0.07,0.7-0.28,0.98-0.76c0.03-0.05,0.05-0.1,0.07-0.16l-1.43-2.9
		C724.03,123.89,722.34,123.89,721.79,123.89 M688.85,158.25c0.58,1.18,1.16,2.36,1.71,3.47c1.1-1.39,2.28-2.57,3.28-3.47H688.85z
		 M701.67,184.24c0,0,0.26,0.53,0.54,1.09h18.95c-0.37-0.75-1.92-3.89-1.92-3.89c-0.45-0.92-1.7-1.45-3.39-1.45h-16.27
		C700.61,182.11,701.67,184.24,701.67,184.24 M711.57,165.91l-0.65-1.33c-0.89,0.7-1.78,1.41-2.68,2.14h3.72
		C711.86,166.5,711.73,166.23,711.57,165.91 M734.16,144.36h17.56l9.95,20.1h-4.26h-11.77c1.7,1,3.77,2.78,4.87,5.79
		c-2.1-2.26-4.07-2.7-4.07-2.7s2.74,2.69,3.35,7.28c-2.83-3.74-4.03-4.12-4.03-4.12s5.66,7.12,2.63,13.79
		c-0.31-11.88-13.37-16.34-18.11-19.32c-0.85-0.54-1.62-1.09-2.34-1.66l0.45,0.9c0.4,0.81,1.34,2.72,1.34,4.85
		c0,0.97-0.2,1.99-0.74,2.96c-0.11,0.19-0.25,0.36-0.38,0.53c3.38,1.44,5.73,3.67,7.3,6.85l2.48,5.01c1.08,2.19,2,4.44,2,6.52
		c0,1.06-0.24,2.08-0.83,3.01c-2.23,3.6-8.01,4.17-20.95,4.17h-25.87h-1.64l-26.29-53.11h25.11c3.25,0,6.09,0.03,8.59,0.09
		l-17.14-34.67h33.04c17.16,0,21.64,2.06,26.67,12.26l5.94,11.98h-17.56l-1.06-2.13c-0.32,0.14-0.63,0.28-0.9,0.47
		c-0.59,1.89-2.2,4.56-3.2,6.13c1.77-0.58,3.38-1.29,4.8-2.13c0.66-1.11,1.62-1.75,1.62-1.75l0.04-0.03l0.03,0.05
		c0.03,0.04,0.67,1.14,0.82,1.88c0.21-0.28,0.29-0.68,0.29-1.05c0-0.62-0.16-1.2-0.16-1.22l-0.03-0.09l0.28,0.12
		c1.36,0.56,2.19,1.28,2.45,2.12l0.05,0.21c0.22,1.11-0.56,2.14-1.04,2.64c0.09,0.26,0.21,1.34-1.31,2.94
		c-0.74,0.78-1.54,1.44-2.35,1.99c2.55,1.25,4.11,3.64,5.58,6.29h2.24C736.83,149.77,734.16,144.36,734.16,144.36"/>
	<g transform="matrix(.8 0 0 -.8 674.11 189.92)">
		<path class="st1" d="M62.23,54.09c0.96,1.19,1.64,2.58,1.64,2.58s-1.96-0.36-4.79,0.62c0,0,1.97,0.39,4.28,1.94
			c0,0-1.86,0.9-3.01,1.86c4.74,1.11,7.88,3.38,7.88,3.38s-0.81-1.7-1.02-2.53c1.24-0.02,2.77,0.5,2.77,0.5
			c0.29-0.08,0.61-0.16,0.93-0.21c-0.25-0.08-0.47-0.26-0.66-0.5c-0.31,0.27-0.78,0.28-1.12,0.03c-0.39-0.3-0.46-0.86-0.17-1.25
			c0.16-0.19,0.39-0.31,0.62-0.33c-0.21-0.82-1.45-1.62-1.45-1.62c2.26,1.07,1.82,1.81,2.52,2.79c0.6,0.84,1.27,0.1,1.13-0.27
			c0.34,0.45,0.14,0.85-0.15,1.05c0.53-0.04,1.04,0,1.49,0.15C73.65,59.35,67.25,55.16,62.23,54.09L62.23,54.09z M73.08,63.56
			c1.44,1.11,0.82,2.36,0.82,2.36c0.87-0.88,0.06-1.89-0.19-2.19C73.48,63.64,73.08,63.56,73.08,63.56L73.08,63.56z M41.57,66.6
			c-3.36,2.25-6.64,2.51-6.64,2.51s6.15,5.85,14.78,3.27C49.72,72.38,43.38,71.37,41.57,66.6L41.57,66.6z"/>
		<path class="st2" d="M22.82-7.99L-7.52,53.32h30.94c3.92,0,7.36-0.06,10.4-0.13c-0.45-0.48-0.86-0.96-1.27-1.49
			c-2.7,0.08-5.73,0.1-9.13,0.1H-5.08c1.03-2.1,28.44-57.46,28.85-58.26h31.87c13.42,0,21.02,0.51,22.75,3.29
			c0.28,0.46,0.43,1,0.43,1.68c0,1.43-0.68,3.43-2.09,6.3l-3.1,6.26c-2.6,5.28-8.05,7.88-17.09,9.29c4.6,0.6,11.38,2.44,7.7,9.7
			c-1.09,2.14-4.81,9.71-4.81,9.71c-0.6,1.22-1.15,2.32-1.72,3.3c0.3,0.48,0.61,0.96,0.88,1.45c0.18-0.31,0.38-0.63,0.57-0.96
			c0.48-1.16,1.09-2.38,1.88-3.63l4.55-9.2c0.95-1.91,1.42-3.53,1.42-4.94c0-0.92-0.21-1.72-0.61-2.44c-0.7-1.25-2-2.18-3.94-2.81
			c6.34-1.32,10.21-4.06,12.53-8.79l3.1-6.27c1.35-2.72,2.25-5.05,2.25-6.97c0-0.9-0.21-1.74-0.66-2.46
			c-2.13-3.41-9.45-4.02-24.04-4.02H23.29L22.82-7.99L22.82-7.99z M32.6,1.66l-1.96,4.01l-1.75,3.51c0.11,0.8,0.27,1.61,0.48,2.46
			c1.22-2.49,2.63-5.31,2.63-5.31s1.08-2.22,1.55-3.16h25.22c2.1,0,2.81,0.42,3.03,0.79c0.1,0.14,0.13,0.34,0.13,0.53
			c0,0.53-0.27,1.22-0.54,1.76l-2.69,5.47c-1.02,2.05-3.38,3.21-6.52,3.21h-21.7c0.22,0.51,0.44,1.01,0.72,1.52h20.99
			c3.72,0,6.59-1.48,7.88-4.07c0,0,2.67-5.45,2.69-5.46c0.46-0.94,0.69-1.75,0.69-2.44c0-0.49-0.12-0.94-0.35-1.31
			c-0.64-1.03-2.01-1.51-4.32-1.51H33.07L32.6,1.66L32.6,1.66z M38.03,24.93c0.54,0.52,1.1,1.02,1.65,1.51h8.22
			c0.84,0,1.92,0.11,2.25,0.66c0.1,0.15,0.14,0.35,0.14,0.61c0,0.91-0.64,2.35-1.17,3.44l-1.07,2.16c0.41,0.32,0.81,0.65,1.2,0.98
			l1.22-2.48c1.17-2.36,1.78-4.2,0.96-5.52c-0.56-0.91-1.72-1.35-3.53-1.35H38.03z M17.94,31.37l-6.05,12.26h16.24
			c-0.17-0.51-0.32-1.02-0.46-1.52H14.33c0.5-1.02,2.64-5.34,4.54-9.21C18.55,32.4,18.23,31.89,17.94,31.37z M89.27,34.38
			c-0.76,0.55-1.5,1.03-2.2,1.5h15.84c-0.93,1.9-8.04,16.25-8.42,17H81.6c0.83-1.66,4.31-8.71,4.31-8.71l-7.13,0.02
			c-0.28,0.49-0.55,0.99-0.83,1.5h5.53c-0.83,1.68-4.31,8.71-4.31,8.71h16.26l9.92-20.01h-1.22L89.27,34.38L89.27,34.38z M35.1,55.6
			c-0.56,0.04-1.12,0.05-1.73,0.08L13.18,96.56h37.2c21.35,0,25.57-2.79,31.06-13.92l5.6-11.31H70.77l-0.48,0.95
			c0.5,0.18,0.97,0.38,1.39,0.61c0.01-0.02,0.02-0.04,0.02-0.06h12.9c-0.86,1.75-4.52,9.13-4.52,9.13
			c-5.14,10.43-8.73,13.07-29.7,13.07H15.61C16.37,93.52,28.68,68.61,35.1,55.6L35.1,55.6z M69.67,60.49
			c-0.17,0-0.33,0.07-0.44,0.22c-0.2,0.25-0.15,0.6,0.1,0.79c0.07,0.06,0.16,0.09,0.25,0.1c-0.18-0.14-0.21-0.39-0.07-0.57
			c0.07-0.09,0.18-0.15,0.28-0.16C69.75,60.74,69.7,60.61,69.67,60.49L69.67,60.49z M68.26,62.56c0.33,0.86,0.99,2.77,2.44,4.35
			c-1.15-2.17-1.6-3.65-1.6-3.65s2.33,0.57,3.34,1.72c0.83,0.92,0.73,1.72,0.68,1.95c0.22-0.11,1.18-0.58,1.44-1.43
			c0.08-0.28,0.1-0.6-0.03-0.96c-0.37-1.09-1.16-1.63-1.17-1.64c-1.02-0.55-3.18,0.16-3.19,0.16C70.17,63.06,69.2,62.74,68.26,62.56
			L68.26,62.56z M72.77,63c0.21,0.01,0.34,0.05,0.34,0.05c0.2,0.09,0.44,0.41,0.44,0.41s-0.82-0.37-1.65-0.35
			C72.25,63.01,72.56,62.99,72.77,63L72.77,63z M70.82,64.46c0.23,0.8,0.01,2.08,0.01,2.08c0.47-0.99,0.5-1.71,0.5-1.71
			C71.16,64.63,70.82,64.46,70.82,64.46L70.82,64.46z M59.84,71.25c0,0-0.43,0.04-1.08,0.06c0.5,0.27,1.5,0.94,1.68,1.16
			c-0.46,0.2-1.26,0.95-1.26,0.95s1.39-0.62,2.45-0.19c1.45,0.59,1.84,2.3,1.84,2.3s0.22-1.1-0.28-1.84
			c1.09,0.12,2.56,1.28,2.56,1.28s-0.59-1.39-3.86-2.76C60.13,71.46,59.84,71.25,59.84,71.25L59.84,71.25z M66.05,71.56
			c0,0-0.25,0.24-0.74,0.37c0,0,1.77,0.69,1.98,0.86c-0.48,0.27-0.91,1.08-0.91,1.08s0.97-0.62,2.27-0.33
			c1.17,0.24,1.99,1.4,1.99,1.4s-0.08-0.8-0.54-1.31c1,0.12,2.06,0.71,2.06,0.71s-0.31-1.08-3.6-1.88
			C66.7,72.01,66.05,71.56,66.05,71.56L66.05,71.56z M39.18,73.49c-3.55,7.21-6.47,13.09-6.47,13.09H59.6
			c4.62,0,6.85-3.11,7.77-4.97c0,0,1.36-2.74,2.58-5.23c0.1-0.4,0.07-0.76-0.1-1.1c-0.16-0.27-0.4-0.5-0.72-0.64l-3.12,6.29
			c-0.76,1.53-2.61,4.13-6.41,4.13H35.15c0.36-0.72,2.66-5.38,5.51-11.15C40.13,73.8,39.65,73.65,39.18,73.49L39.18,73.49z"/>
		<path class="st3" d="M23.76-6.46C23.35-5.66-4.05,49.71-5.08,51.8h28.51c3.41,0,6.44-0.02,9.13-0.1c-1.9-2.4-3.44-5.15-4.43-8.06
			H11.89l6.05-12.27c-0.88-1.62-1.57-3.34-1.9-5.15c1.85,2.03,4.19,2.96,5.72,3.36L22.12,29c-6.81-5.34-5.18-14.4-5.18-14.4
			s1.58,7.02,6.86,9.66c-6.75-8.58-2.28-20.22-2.28-20.22s-0.63,10.08,6.19,17.62c-6.37-13.89,1.86-22.2,1.86-22.2
			s-1.42,4.22-0.68,9.73l1.75-3.52l1.96-4.01h26.16c2.31,0,3.68,0.47,4.32,1.51c0.23,0.38,0.35,0.82,0.35,1.32
			c0,0.69-0.23,1.51-0.69,2.44c-0.01,0.02-2.69,5.46-2.69,5.46c-1.29,2.58-4.16,4.07-7.88,4.07H31.18c0.61,1.18,1.37,2.37,2.31,3.55
			c1.42,1.78,2.95,3.41,4.53,4.92h9.87c1.81,0,2.97,0.44,3.53,1.35c0.82,1.32,0.2,3.16-0.96,5.52l-1.22,2.48
			c3.29,2.7,6.28,5.48,8.44,8.79c0.57-0.98,1.12-2.08,1.72-3.3c0,0,3.72-7.57,4.81-9.71c3.68-7.26-3.09-9.11-7.7-9.71
			c9.04-1.4,14.49-4,17.09-9.28l3.1-6.26c1.42-2.88,2.09-4.88,2.09-6.31c0-0.67-0.14-1.22-0.43-1.68
			c-1.73-2.78-9.34-3.29-22.75-3.29L23.76-6.46L23.76-6.46z M27.97,15.14c3.58,16.2,15.59,18.46,23.75,27.52
			c2.52,2.81,6.98,12.21-1.31,17.71c-0.41,0.28-0.92,0.53-1.4,0.78c0.26,0.41,0.71,0.9,1.06,1.27c2.12,2.35,5.49,4.04,5.49,4.04
			s-3.93-0.51-6.55-1.38c2.65,2.71,7.98,3.91,7.98,3.91s-1.74,0.13-3.26-0.04c2.66,1.6,5.73,0.9,5.73,0.9
			c-0.46-2.76-2.11-5.62-2.11-5.62s-1.75-0.04-4.25-0.95c1.25,0.1,2.75-0.12,4.3-0.44c1.22-0.25,2.33-0.29,3.23-0.25
			c-1.1-0.29-2.24-0.57-3.43-0.78l-0.11-0.03l0.09-0.08c0.02-0.01,1.91-1.67,4.06-2.39c-2.54-1.25-5.39-1.76-5.41-1.76l-0.17-0.04
			l0.15-0.07c0.04-0.03,3.64-1.84,5.65-1.94c-1.11-1.91-1.93-2.98-1.94-2.99l-0.08-0.1l0.13,0.02c0.04,0,2.84,0.21,6.22,1.62
			c-0.29-2.91-0.67-13.22,7.23-19.96c6.6-5.66,13.96-7.22,16.49-13.21c-6.49,8.59-24.93,9.01-29.61,28.18
			c2.1,0.8,3.76,2.67,3.76,2.67c-1.01-0.41-2.08-0.69-2.95-0.88c-0.45-0.09-1.32-0.24-1.39-0.24c-0.31-0.05-0.54-0.09-0.54-0.09
			c-0.47-1.98-1.47-4.68-3.55-7.44C48.56,34.2,34.64,29.12,27.97,15.14L27.97,15.14z M25.48,22.58c0,0,3.34,11.07,13.91,20.1
			c-5.39-2.42-13.49-8.56-13.49-8.56s6.31,9.52,13.3,13.7c-3.12-0.75-6.45-2.47-6.45-2.47c2.37,5.41,12.43,13.98,17.7,7.81
			c3.64-4.26-0.85-10.2-8.4-14.92C30.9,31.29,25.48,22.58,25.48,22.58L25.48,22.58z M88.59,27.28c-5.19,4.5-13.04,6.69-16.7,12.12
			c-1.09,1.62-1.81,3.52-2.28,5.37c0.97-0.73,2.41-1.63,3.76-1.83c0,0-0.8,5.27-3.76,9.12c7.39-3.15,4.16-11.82,16.67-17.5
			c-3.29,0.05-8.36,2.01-8.36,2.01C84.98,32.56,88.59,27.28,88.59,27.28L88.59,27.28z M87.07,35.88c-3.09,2.05-5.69,3.64-8.17,8.05
			c-0.05,0.09-0.08,0.18-0.13,0.26l7.13-0.02c0,0-3.48,7.04-4.3,8.71h12.89c0.37-0.75,7.49-15.1,8.42-17L87.07,35.88z M36.25,55.57
			c-0.37,0.02-0.76,0.03-1.15,0.05c-6.42,13-18.72,37.9-19.48,39.42h34.77c20.98,0,24.56-2.63,29.7-13.06c0,0,3.66-7.38,4.52-9.13
			h-12.9c0,0.02-0.01,0.04-0.02,0.06c0.82,0.48,1.41,1.17,1.46,2.28c0.02,0.45-0.04,0.97-0.22,1.56l-0.1,0.33l-0.06-0.33
			c-0.23-1.21-1.05-1.72-1.38-1.87c0.02,0.08,0.04,0.18,0.04,0.29c0.03,0.6-0.18,1.6-1.74,2.17l-0.22,0.09l0.12-0.21
			c0.19-0.28,0.3-0.56,0.37-0.82c-1.23,2.49-2.58,5.24-2.58,5.24c-0.92,1.85-3.16,4.97-7.77,4.97H32.71c0,0,2.91-5.88,6.46-13.09
			c-5.15-1.76-6.86-5.31-6.86-5.31s9.54-2.26,14.23-7.42C42.92,60.1,39.35,58.22,36.25,55.57L36.25,55.57z M69.88,61.1
			c-0.08-0.02-0.16,0.01-0.2,0.08c-0.06,0.08-0.05,0.2,0.04,0.28c0.09,0.08,0.22,0.05,0.28-0.04c0.01,0,0.01-0.02,0.02-0.04
			C69.97,61.29,69.92,61.19,69.88,61.1L69.88,61.1z M59.72,66.58c1.47,1.52,3.73,2.37,3.73,2.37s-1.62,0.08-2.31,0.03
			c1.63,1.28,3.98,1.5,4.31,1.32c-0.5-1.68-1.87-3.49-1.87-3.49S62.05,67.06,59.72,66.58L59.72,66.58z"/>
	</g>
</g>
</svg>
