<?xml version="1.0" encoding="utf-8"?>
<!-- Generator: Adobe Illustrator 25.0.1, SVG Export Plug-In . SVG Version: 6.00 Build 0)  -->
<svg version="1.1" id="katman_1" xmlns="http://www.w3.org/2000/svg" xmlns:xlink="http://www.w3.org/1999/xlink" x="0px" y="0px"
	 viewBox="0 0 560 400" style="enable-background:new 0 0 560 400;" xml:space="preserve">
<style type="text/css">
	.st0{fill:#FFFFFF;}
	.st1{fill:#A51C30;}
</style>
<g>
	<path class="st0" d="M395.3,159.4c0,118.4-111.2,174.5-112.3,175.1l-1.9,1l-1,0.5l-1-0.5l-1.9-1c-1.1-0.6-112.3-56.7-112.3-175.1
		V64.1h230.6v2.3V159.4z"/>
	<path d="M393,159.4c0,117-110,172.5-111.1,173l-1.9,1l-1.9-1c-1.1-0.5-111.1-56.1-111.1-173v-93h226V159.4z"/>
	<path class="st1" d="M171.4,70.8v88.6C171.4,275,280,328.5,280,328.5S388.6,275,388.6,159.4V70.8H171.4z"/>
	<path d="M297.8,89.8v28.3h6.5v38.8h-48.7v-38.8h6.5V89.8h-41.3v28.3h6.5v105.9h-6.6l0,28.3h41.3v-28.3h-6.4v-38.8h48.6v38.8h-6.5
		v28.3h41.4v-28.3h-6.5V118.1h6.5V89.8H297.8z"/>
	<path class="st0" d="M301.8,93.7v20.4h6.5v46.7h-56.6v-46.7h6.5V93.7h-33.4v20.4h6.5v113.8h-6.6l0,20.4h33.4v-20.4h-6.4v-46.7h56.6
		v46.7h-6.5v20.4h33.5v-20.4h-6.5V114.1h6.5V93.7H301.8z"/>
</g>
</svg>
