<?xml version="1.0" encoding="utf-8"?>
<!-- Generator: Adobe Illustrator 25.0.1, SVG Export Plug-In . SVG Version: 6.00 Build 0)  -->
<svg version="1.0" id="katman_1" xmlns="http://www.w3.org/2000/svg" xmlns:xlink="http://www.w3.org/1999/xlink" x="0px" y="0px"
	 viewBox="0 0 560 400" style="enable-background:new 0 0 560 400;" xml:space="preserve">
<style type="text/css">
	.st0{fill:#FFFFFF;}
</style>
<g transform="matrix(1.088728 0 0 1.088728 144.0438804 66.4813359)">
	<path d="M125.1,1.1c-4.8,0-9.6,0.1-14.3,0.2v35.4c4.8-0.2,9.6-0.3,14.4-0.2v-4.4c-3.1,0-6.2,0-9.3,0.1V20.9
		c2.8-0.1,5.6-0.1,8.4-0.1v-4.5c-2.8,0-5.6,0-8.4,0.1V5.6c3.1-0.1,6.1-0.1,9.2-0.1L125.1,1.1z M133.9,1.2c-2,11.8-3.9,23.5-5.9,35.3
		c1.6,0,3.2,0,4.8,0.1c0.4-3.1,0.9-6.1,1.3-9.2c2.2,0,4.4,0.1,6.6,0.2c0.4,3.1,0.9,6.2,1.4,9.2c1.7,0.1,3.4,0.2,5,0.2
		c-2-11.9-3.9-23.8-5.9-35.7C138.8,1.3,136.3,1.3,133.9,1.2L133.9,1.2z M104.7,1.6c-1.7,0.1-3.4,0.2-5.1,0.3v15.5
		c-2.3,0.1-4.6,0.3-6.8,0.5V2.4c-1.7,0.1-3.4,0.3-5.1,0.4v35.4c1.7-0.2,3.4-0.3,5.1-0.4V22.9c2.3-0.2,4.6-0.3,6.8-0.5v14.9
		c1.7-0.1,3.4-0.2,5.1-0.3V1.6z M154.1,2.2c-1.4,1.3-2.7,2.5-4.1,3.8v12.3c1.2,1.2,2.3,2.4,3.5,3.7c2.2,0.2,4.5,0.3,6.7,0.5
		c0.4,0.5,0.9,1,1.4,1.5v8.4c-0.6,0.5-1.2,1.1-1.8,1.6c-1-0.1-2.1-0.2-3.1-0.3c-0.6-0.6-1.1-1.3-1.7-1.9v-4
		c-1.7-0.1-3.4-0.2-5.1-0.4v5.9c1.4,1.4,2.7,2.9,4.1,4.3c2.9,0.2,5.8,0.5,8.7,0.7c1.4-1.2,2.7-2.4,4.1-3.6V22.1
		c-1.2-1.3-2.4-2.6-3.5-3.8c-2.2-0.2-4.4-0.4-6.7-0.6c-0.4-0.5-0.9-1-1.4-1.4v-8c0.6-0.5,1.1-1.1,1.7-1.6c0.9,0.1,1.9,0.2,2.9,0.2
		c0.6,0.6,1.2,1.3,1.8,1.9v4c1.7,0.2,3.4,0.3,5.1,0.5V7.3c-1.4-1.5-2.7-3-4.1-4.5C159.7,2.6,156.9,2.4,154.1,2.2L154.1,2.2z
		 M83.7,3.2c-5.8,0.6-11.6,1.3-17.4,2.2v4.5c2-0.3,4.1-0.6,6.1-0.9V40c1.7-0.2,3.4-0.4,5.1-0.6V8.4c2-0.2,4.1-0.5,6.1-0.7L83.7,3.2z
		 M169.7,3.6v4.5c2.1,0.2,4.1,0.5,6.1,0.7v30.9c1.7,0.2,3.4,0.4,5.1,0.7V9.6c2,0.3,4.1,0.6,6.1,0.9V6C181.3,5.1,175.5,4.3,169.7,3.6
		z M137.4,4.6c0.9,6.2,1.8,12.5,2.6,18.7c-1.8-0.1-3.6-0.1-5.4-0.2C135.6,17,136.5,10.8,137.4,4.6L137.4,4.6z M58.8,6.6
		c-4.4,0.7-8.7,1.5-13,2.4v35.4c1.7-0.3,3.4-0.7,5.1-1v-15c1.2-0.2,2.5-0.5,3.7-0.7c1.1,4.8,2.3,9.6,3.4,14.4
		c1.7-0.3,3.4-0.6,5.1-0.8c-1.2-5-2.5-10-3.7-15.1c1.1-1.3,2.3-2.7,3.4-4V10C61.6,8.8,60.2,7.7,58.8,6.6L58.8,6.6z M191,6.6V42
		c4.8,0.8,9.5,1.7,14.3,2.6v-4.4c-3.1-0.6-6.1-1.2-9.2-1.8V27.2c2.8,0.5,5.5,1,8.3,1.6v-4.5c-2.8-0.6-5.5-1.1-8.3-1.6V11.9
		c3,0.5,6.1,1.1,9.1,1.7V9.2C200.4,8.3,195.7,7.4,191,6.6L191,6.6z M210,10.3v35.4c1.7,0.4,3.4,0.7,5.1,1.1v-15
		c1.2,0.3,2.4,0.6,3.7,0.9c1.1,5.3,2.3,10.6,3.4,15.9c1.7,0.4,3.4,0.9,5.1,1.3c-1.2-5.5-2.4-11.1-3.6-16.6c1.1-0.9,2.3-1.7,3.4-2.6
		V18.4c-1.3-1.7-2.7-3.4-4-5.1C218.7,12.2,214.4,11.2,210,10.3L210,10.3z M36.1,11.1c-2.9,0.7-5.9,1.4-8.8,2.1
		c-1.3,1.7-2.7,3.4-4,5.1v27.3c1.3,1,2.7,2,4,3c2.9-0.7,5.9-1.4,8.8-2.1c1.3-1.7,2.7-3.3,4-4.9V14.2C38.8,13.2,37.4,12.1,36.1,11.1z
		 M56.1,11.1c0.6,0.5,1.2,1,1.7,1.4v8.8c-0.6,0.7-1.2,1.4-1.7,2c-1.7,0.3-3.5,0.6-5.2,0.9V12.1C52.6,11.7,54.3,11.4,56.1,11.1z
		 M215.1,15.4c1.7,0.4,3.4,0.8,5.1,1.2c0.6,0.7,1.1,1.4,1.7,2.2v8.8c-0.6,0.4-1.1,0.9-1.7,1.3c-1.7-0.4-3.4-0.8-5.1-1.2V15.4z
		 M17.7,15.7c-1.5,0.4-3,0.8-4.4,1.3v23.6C10.5,33.5,7.8,26.4,5,19.4c-1.4,0.4-2.8,0.9-4.2,1.3v35.4c1.5-0.5,2.9-0.9,4.4-1.4V30.9
		C8,38,10.7,45.1,13.5,52.3c1.4-0.4,2.8-0.8,4.2-1.2V15.7z M232.1,15.7v35.4c1.5,0.4,3,0.8,4.4,1.3V28.5c2.7,8.7,5.5,17.5,8.2,26.3
		c1.4,0.4,2.8,0.9,4.1,1.3V20.8c-1.5-0.5-2.9-0.9-4.4-1.4V43c-2.7-8.7-5.4-17.4-8.2-26.1C234.9,16.5,233.5,16.1,232.1,15.7
		L232.1,15.7z M33.4,15.9c0.6,0.5,1.1,0.9,1.7,1.4v23.5c-0.6,0.7-1.1,1.4-1.7,2.1c-1.1,0.3-2.3,0.5-3.4,0.8
		c-0.6-0.4-1.1-0.9-1.7-1.3V18.9c0.6-0.7,1.1-1.4,1.7-2.2C31.1,16.4,32.3,16.2,33.4,15.9z M98.7,47.4c-6,18.4-11.1,27.6-12.3,29.3
		c-5.8,8.6-7.2,12.8-9.2,26.5c-5.1,3.4-8.6,7.5-11.3,11.8c-5.2,8.5-9.8,19.9-16.6,29.3c1.7,15.2-2,22.4-2.6,37.2
		c7,23.8,23.4,39,52.8,58.8c-0.7-5.1-0.6-9.5-0.5-12.4c6.6,6.6,15.8,11.8,24.6,16.2c5.7-2.4,13.3-6.4,19.6-13c0.1,1.5,0,5.5-0.5,8.1
		c8-6.4,16.2-18.8,20.2-31.2c1.9-6,2.2-10.4,0.2-18.7c-0.1-0.6,2.3-3.7,2.3-7.6c0-2.1-1-4.2-1-4.2c9.5-3.2,13-4.5,19.5-12.7
		c0.3-0.3,2.9,0.2,3.9-0.7c3.4-2.8,6.9-7.8,8.4-11.8c0.9-2.3,1.2-4.9,1.3-7.7c2.6-2.8,5.1-6.1,5.3-12.7c-2.1-2.5-6.9-4.2-15.1-7.1
		c-4.7-1.7-11.8-4.5-14.1-5.9c1.2-1.8,2-4.3,2-5.7c-0.1-1.9-2.1-5-3.3-7.6c-1.1-3.9-1.8-6.6-2.9-8.1c-1.5-2.2-3.1-3-5.9-4.6
		c3.1-15.3-1.2-18.9-1.7-29.8c-7.8-0.6-15.7,10.8-17.7,12c-2.8,1.8-5.7,4.8-5.7,4.8c-7.5-3-10.8-3.2-16.1-2
		C118.6,60.7,111.2,50.8,98.7,47.4L98.7,47.4z"/>
	<path class="st0" d="M101.7,55C98.7,63.5,89.8,80,91.2,98.8C90,98.4,88.4,97.9,87,97c0.1,3.9-0.5,7.6-1.5,9.8
		c-8.3,5.4-13,13.9-17.1,23.5c7.9-9.3,15.2-16.7,23.3-18.5c1.1-1.2,2.3-3.1,2.4-5.4c1.8,1.1,4.2,1,5.8,0.2
		c-6.3-17.8-1.5-34.1,3.8-40.8c2.5,5.1,7.8,6,9,13.2c-1.8-1.6-4.8-2.1-6.3-1.5c1.6,3.7,1.9,6.1-1.4,12.5c0.4,1.6,1.3,3.4,2.8,4.6
		c-1.9,0-4,1.4-4.8,3.2c2.3,0,4.1,1.3,4.9,2.7c5.9-4.1,7.6-9.5,7.8-11.7c1.8,0.8,3.3,0.1,3.3,0.1C116.7,68.4,108.1,55.6,101.7,55
		L101.7,55z M158,69.9c-4.3,0.1-9.8,7.4-11.6,14.4c2.6,1.3,6,3.2,9,4.9c-0.7-2.1-1.1-4.2-0.4-6.8c-1,0-2.2,0.4-2.9,1.4
		c-0.7-7.3,1.8-5.7,4.4-8.6c0.2,5.3,2.1,5.6,3.1,14C161.4,80,158.4,75.8,158,69.9z M139.3,89.2c-6.2-0.1-6.1,5.6-9.6,9.1
		c1.6,1.1,2.8,3.3,3.1,5c-7.7-0.9-7.5,4.6-14.8,9.2c1.2,1.4,3.1,2.5,4.9,3.1c-1.4,0.7-2.7,1.8-3.5,3c6.9,2.5,9.1,7,12.7,8.9
		c1.4,0.8,5.7,1,7.6,0.4c-3,5.2-11,5.9-13.6,4.5c-2.6-1.4-5.1-6.8-7.4-8.6c-2.3-1.8-9.1-1.9-10.6-0.9c-3.1,2-5.4,6.9-15.3,10.5
		c0.4,1,1.4,2.4,2.1,3c-1.9,1.6-6.2,2.4-6.2,2.4c2.2,5.6,7.3,10,12.2,14.1c-3.8-0.2-9-1.3-12-3.3c7,15.8,15.1,21.2,25.1,25.1
		c-3.2,1.4-7.5,2-12.2,1c-5-1-11.3-4.6-16.3-9.6c-0.8,1.7-1.1,3.6-1.2,5.3c-4.1-4.3-6.8-7.8-7.9-15.2c-4.2,5.9-5.6,13.2-0.6,21.9
		c0.6-2.1,1.1-3.2,2.1-4.4c1.5,5.6,5.8,10.6,8.9,13.6c0.3-2.7,0.6-4.5,1.2-6.5c6.1,10.4,16.3,20.1,29.4,30.1
		c-9.3-2.3-19.6-7.3-28-13.6c-0.4,2.1-0.6,3.8-0.5,6.2c-10.8-6.9-19-12.2-26.9-22.9c4.5,13.8,7.4,20.4,29.8,38.2
		c-0.1-3.2-0.1-5.4,0.3-8.4c12.4,10.5,24.8,18.1,33.1,21.5c10.6-3.5,19.9-12.3,25-19c0.3,1.8,0.2,3.8-0.1,6
		c7.7-9.5,9.1-17.9,7.9-21.7c-1.2,3.5-3,5.4-5.3,7.9c0.3-2.1,0.4-3.9,0-6.1c-3,4.4-10.8,10.9-16.3,12c4.9-8.7,9.6-23.8-2.7-32.7
		c1.2-2,2.6-3.4,5.3-3.7c-3.5-4-7.6-5.9-13.4-5.8c2.2-1.8,5.6-3.3,9.8-3.4c5.2-0.2,12,1.6,18.9,6.4c9.6,2.1,21-5.1,22.6-7.5
		c0.2-0.3,0.2-0.6-0.1-0.8c-0.6-0.3-1.8-0.5-3.9-0.5c-5.4,0.2-9.1,1.4-17.2-0.5c-8.5-2-13.1-6.9-23.4-7.3c9-6.8,15.5,0.7,23.6,2.8
		c13.2,3.5,25.2-3.1,27.8-3.3c0.8,0.5,1.6,1.6,2.2,2.4c1.8-0.5,3.9-3.7,4.6-5.5c0.4-1.1,1-2.6,0.8-3.6c-0.9,0.6-2.9,1.2-4.2,1.5
		c-1.6-0.7-3.2-2.1-3.8-3.3c-1.8-4.2-5.6-5.3-6.2-7c-0.6-1.5,1.2-5.4,2.8-7.1c1.4-1.4,4.4-2.1,7.2-2.2c-8.6-3.3-15.7-5.6-21.1-9.3
		c-1.6-1.1-2.5-2.1-2.9-4.9c0,0,0.4,0.6,1.8,1.1c1.9,0.6,2-1.6,3-2.5c0.6,0.4,1.1,1.2,1.3,1.8c0.5-0.7,0.9-1.6,0.9-2.6
		c0-0.7-0.7-2.4-2.6-5.3c-0.9-3.2-1.6-5.4-2.1-6.6c-0.3-0.7-0.7-2-2.6-2.7c-0.9,1.1-1,3.2-1.4,9.1c-2-8.4-4.2-11.2-9-15.1
		c2,4.4,2.7,7.5,3.2,14.6C151.2,96.8,144.9,89.3,139.3,89.2L139.3,89.2z M139.7,106.9c5.7,1.3,8.4,7.6,11.2,8.8
		c1.2,0.5,3.6,0.6,4.7,0.2c0.1,1.2-0.6,2.3-1.4,3.1c0.4,0.5,1.1,0.9,1.9,1.1c1.5,1.4,1.2,4.9-1.1,8.5c-2.1-4.1-5.4-6.8-8.3-7.7
		c-1,0.9-4.9,2-8.3,1.3c-2.8-0.6-7.7-6.9-11.1-7.8c3.5-3.1,8.4-6.5,12.9-4.8C140.2,108.4,140.1,107.5,139.7,106.9L139.7,106.9z
		 M141.1,113.9c-1.8,0-3,0.5-4.1,1.3c0.8,1.9,2.6,2.9,3.7,3.3c0.7,0.2,3.2,0,4.4-1.2C143.5,116.2,142.5,114.8,141.1,113.9
		L141.1,113.9z M194.5,133.6c-2.6-0.1-6.1,1-7.6,2.3c1.2,0.6,1.9,1.2,2.7,2.1c2.2-1.1,4.1-1.2,4.6-0.6c0.4,0.5,0.2,2.4-0.4,4.4
		c1.5-1.4,3.6-4.8,3.2-7.3C196.6,133.9,195.7,133.7,194.5,133.6L194.5,133.6z"/>
</g>
</svg>
