<?xml version="1.0" encoding="utf-8"?>
<!-- Generator: Adobe Illustrator 25.0.1, SVG Export Plug-In . SVG Version: 6.00 Build 0)  -->
<svg version="1.0" id="katman_1" xmlns="http://www.w3.org/2000/svg" xmlns:xlink="http://www.w3.org/1999/xlink" x="0px" y="0px"
	 viewBox="0 0 560 400" style="enable-background:new 0 0 560 400;" xml:space="preserve">
<style type="text/css">
	.st0{fill:#FFFFFF;}
	.st1{fill:#27251F;}
	.st2{fill:#971B2F;}
	.st3{fill:#572932;}
	.st4{fill:#B1B3B3;}
</style>
<g transform="matrix(1.3663 0 0 -1.3663 5.21127 1102.9)">
	<path class="st0" d="M329.9,691.1h-24.5l15.3,75.1H133.9l-12-56.9H92.5l-7.8-37.8h5l-4.3-20.3l-4.7,0l-8.3-37.7h41l-0.6-2.9l0,0
		c-3.1-14.8,0-29.4,8.7-40c7.9-9.8,19.5-15.1,32.7-15.1H221c12.3,0,24.8,5.6,35.3,15.7c9.5,9.2,16.4,21.2,19,33.1l2,9.3h20.1
		c10.1,0,19.5,7.7,21.8,17.8l3.1,14.8c0.6,3,0.6,6,0,8.8L329.9,691.1z"/>
	<path class="st1" d="M317.6,657.5l6,28.5h-35c-0.4,0-0.7,0-1.1,0l2.1,10h11.5l13.2,65.1H138.1l-12-56.9H96.7L91,676.6h5l-6.5-30.5
		l-4.8,0l-6.1-27.5h37.1l5.2,24.5c0.9-2,1.7-3.9,2.6-5.8l-5.9-27.7l0-0.1c-2.8-13.3,0-26.3,7.6-35.7c6.9-8.5,17.1-13.2,28.7-13.2
		H221c23.6,0,44.5,23.2,49.2,44.8l2.8,13.3h24.2c7.7,0,15.1,6.1,16.8,13.8l3.1,14.7c0.8,3.7,0.3,7.3-1.3,10.3H317.6z"/>
	<path class="st2" d="M150.3,746.1l-7.4-35.1h11.9l-3.5-16.5l7.5,9.7h34.1l-5.7-27.6l-4.8,0l-6.4-30.5h1.1l15.6,39.9h4.9l12.7,60.1
		L150.3,746.1L150.3,746.1z M236.6,746.1L223.9,686h4.2l-0.3-17l0.7,3.5c1.9,8.8,10.7,13.5,18.1,13.5h25.5l5.3,25h11.4l7.1,35.1
		L236.6,746.1L236.6,746.1z M142.7,639.1l-4.6-6l-5.7-26.7c-3.4-16.4,5.3-30.9,21.7-30.9H221c16.4,0,31.4,18.5,34.6,33l2.2,10.3
		c-0.8-0.1-1.5-0.2-2.3-0.2h-45.8l-1.6-7.7h-26.4l1.6,7.7H175l0,0h-36.7L142.7,639.1z"/>
	<path class="st3" d="M210.2,746.1l-27.6-17.4l-5.3-24.5h15.5l-5.7-27.6l-4.8,0l-6.4-30.5h1.1l15.6,39.9h4.9L210.2,746.1
		L210.2,746.1z M296,746.1l-39.1-17.4l-9.2-42.8h24.4l5.3,25h11.4L296,746.1L296,746.1z M257.8,618.8c-0.8-0.1-1.5-0.2-2.3-0.2
		h-22.2l-1.9-8.8c-1.6-7.3-9.1-16.5-17.3-16.5h-46.5c-4.3,0-7.6,2.1-9.4,5.2l-23.4-12.2c3.7-6.5,10.3-10.8,19.2-10.8H221
		c16.4,0,31.4,18.5,34.6,33L257.8,618.8L257.8,618.8z M183.3,618.7l-24.4,0l-2.1-9.9c-0.8-3.8-0.3-7.5,1.4-10.2l23.8,12.4h-0.3
		L183.3,618.7z"/>
	<path class="st2" d="M319.8,682.9h-31.2c-4.1,0-8.6-1.7-11.6-4.8l1,4.8h-31.2c-6.3,0-13.6-4.1-15.1-11.1l-2.7-13
		c-0.9-4-0.1-7.9,2.1-10.6c1.4-1.7,3.2-2.9,5.4-3.4H227l-1.1-5.4h-1.5l0.7,43.4h-30.3l-17-43.6h-1.4l0.8,3.7h-5l7.7,36.7l4.8,0
		l4.4,21.4h-28.8l-21.8-28.2L128,701.2H99.2l-4.4-21.4h5.1L92,643.1l-4.8,0l-4.7-21.3h30.8l6.7,31.4c2.9-6.8,10.7-24.3,10.7-24.3
		l17.7,22.8l-6.4-29.9l51.7,0l4.7,13.5h4l-1.4-13.5h54.4c3.3,0,6.6,1.5,9.2,3.8l-0.8-3.8h33.4c6.2,0,12.4,5.1,13.8,11.5l3.1,14.6
		c0.8,3.8,0,7.4-2.1,9.9c-1.1,1.3-2.5,2.3-4.1,2.8h7L319.8,682.9z"/>
	<g transform="matrix(.8 0 0 -.8 102.309 741.701)">
		<path class="st0" d="M52.3-14.9L39.1,47.7H54l-6.1,28.4l13.3-17.2l4.4-20.6H50.7l9.2-43.9h74.9L119,69.6h9.6l17.8-84.5L52.3-14.9
			L52.3-14.9z M160.3-14.9l-17.8,84.5h9.6l15.9-75.2h74.3l-8.9,43.9h-14.2l-6.7,31.3h9.6l4.7-21.9h14.3l12.7-62.6L160.3-14.9
			L160.3-14.9z M-0.7,54.5l-4,19.1h6.4l-11.4,53.6l-6,0l-4.2,18.9h30.5L20.9,98c4.9,11.7,10.3,23.9,15.5,35.6L65,96.9l-10.5,49.2
			h30.1l4.1-18.9h-6.2l11.3-53.5l6,0l4-19.1H74.3L43.9,93.8L29.4,54.5L-0.7,54.5L-0.7,54.5z M118.1,77.3l-21.3,54.5h-5.2l-3,14.3h23
			l5.9-16.8h12l-1.7,16.8h22.5l3.1-14.5h-4.8l0.9-54.3L118.1,77.3L118.1,77.3z M180.5,77.3c-6.5,0-13.7,4.3-15.1,10.8l-3.4,16.3
			c-1.5,6.8,1.9,13.2,8.8,13.2h18.6l-3.1,14h-10.5l1.5-6.7h-18.4l-4.5,21.2h37c6,0,12.1-5.2,13.5-11.3l3.8-18.2
			c1.3-6.3-1.8-12-8.1-12h-19.5l2.8-13.1h11l-1.3,6.1h16.8l4.3-20.2L180.5,77.3L180.5,77.3z M232.9,77.3c-6.5,0-13.7,4.3-15.1,10.8
			l-3.4,16.3c-1.5,6.8,1.9,13.2,8.8,13.2h18.6l-3.1,14h-10.5l1.5-6.7h-18.4l-4.5,21.2h37c6,0,12.1-5.2,13.5-11.3l3.8-18.2
			c1.3-6.3-1.8-12-8.1-12h-19.5l2.8-13.1h11l-1.3,6.1h16.8l4.3-20.2L232.9,77.3L232.9,77.3z M131.2,89.2h0.6l-1.4,27.8h-9
			L131.2,89.2L131.2,89.2z M44.7,135.7l-10,12.9l-1.6-3.5l-4.7,22.1c-2.9,13.9-0.1,27.3,7.6,36.8c6.9,8.4,17,13.1,28.6,13.1h83.8
			c24.6,0,47.4-25.6,52.4-48.7l3.1-14.6h-6.7l0.2-1c-1,0.3-2,0.6-3.1,0.7l-2.8,12.9c-4,18.2-22.8,41.3-43.2,41.3H64.6
			c-20.5,0-31.4-18.2-27.1-38.6L44.7,135.7L44.7,135.7z M101.2,153.8l-2,9.7h33l2-9.7H101.2z"/>
		<path class="st4" d="M29.4,54.5l-9.6,9.6h-3.9L0.3,136.7h-9.2l-11,9.4h30.5L20.9,98l-1-33.6l20.1,50l-3.5,19.2L65,96.9l18.6-32.5
			l-15.1,71.8l-13.9,9.9h30l4.1-18.9h-6.1l11.4-53.6l5.8,0l4-19.1l-11.1,9.6H78.8l-38.5,49.7l3.6-20L29.4,54.5L29.4,54.5z
			 M214.8,77.3l-10.4,6.9h-22.1c-3.2,0-6.9,2.1-7.6,5.4l-1.3,6c0,0-1.3,6.1-1.8,8.7c-0.5,2.5,0.2,4,0.6,4.7l-9.1,4.4
			c1.5,2.5,4.1,4.2,7.7,4.2h18.6l9-4.3c0.4,0.9,0.8,2.3,0.3,4.2l-3.2,14.7c-0.8,3.8-2.9,6.6-7.6,6.6h-22.9l-10.6,7.3h37
			c6,0,12.1-5.2,13.5-11.3l3.8-18.2c0.6-3,0.2-5.8-1-8l-9.5,4.6c-0.7-1.6-2.1-2.2-4.2-2.2c0,0-15.1,0-17.6,0c-2.6,0-3.3-0.7-4.3-2
			l9-4.4l2.8-13.1h11l-1.3,6.1h16.8L214.8,77.3L214.8,77.3z M267.2,77.3l-10.4,6.9h-22.1c-3.2,0-6.9,2.1-7.6,5.4l-1.3,6
			c0,0-1.3,6.1-1.8,8.7c-0.5,2.5,0.2,4,0.6,4.7l-9.1,4.4c1.5,2.5,4.1,4.2,7.7,4.2h18.6l9-4.3c0.4,0.9,0.8,2.3,0.3,4.2l-3.2,14.7
			c-0.8,3.8-2.9,6.6-7.6,6.6h-22.9l-10.6,7.3h37c6,0,12.1-5.2,13.5-11.3l3.8-18.2c0.6-3,0.2-5.8-1-8l-9.5,4.6
			c-0.7-1.6-2.1-2.2-4.1-2.2c0,0-15.1,0-17.7,0c-2.6,0-3.3-0.7-4.3-2l9-4.4l2.8-13.1h11l-1.3,6.1h16.8L267.2,77.3z M149.4,77.3
			l-8.6,7.1h-16.7L104,138.9h-6.8l-8.5,7.2h23l5.9-16.8h12l9.6-5.9l-0.8,15.7l-10.6,7.1h22.5l3.1-14.5h-4.8L149.4,77.3L149.4,77.3z
			 M140.7,84.7l-1.6,38.5H110l11.4-6.1l9.8-27.8h0.6L140.7,84.7L140.7,84.7z"/>
	</g>
</g>
</svg>
